<svg width="546" height="36" viewBox="0 0 546 36" fill="none" xmlns="http://www.w3.org/2000/svg">
<path d="M26.3467 28.6489C26.0941 27.7304 25.7496 26.8004 25.3133 25.8589C24.877 24.9174 24.3144 24.0678 23.6256 23.31C22.9596 22.5293 22.1674 21.8978 21.2489 21.4156C20.3304 20.9333 19.2511 20.6922 18.0111 20.6922C16.4267 20.6922 15.003 21.0137 13.74 21.6567C12.477 22.2996 11.4093 23.1722 10.5367 24.2744C9.66407 25.3767 8.99815 26.6626 8.53889 28.1322C8.07963 29.6019 7.85 31.1633 7.85 32.8167C7.85 35.067 8.13704 37.2026 8.71111 39.2233C9.30815 41.2211 10.1348 42.9778 11.1911 44.4933C12.2704 46.0089 13.5563 47.2144 15.0489 48.11C16.5644 48.9826 18.2522 49.4189 20.1122 49.4189C21.7426 49.4189 23.1548 49.1663 24.3489 48.6611C25.5659 48.133 26.6107 47.4326 27.4833 46.56C28.3789 45.6874 29.1481 44.677 29.7911 43.5289C30.4341 42.3578 31.0081 41.1293 31.5133 39.8433L33.6144 40.7044C33.0174 42.9089 32.2137 44.8837 31.2033 46.6289C30.193 48.3741 28.9989 49.8552 27.6211 51.0722C26.2663 52.2663 24.7278 53.1848 23.0056 53.8278C21.3063 54.4478 19.4578 54.7578 17.46 54.7578C15.1407 54.7578 12.9707 54.31 10.95 53.4144C8.92926 52.4959 7.17259 51.2444 5.68 49.66C4.18741 48.0756 3.00482 46.227 2.13222 44.1144C1.25963 42.0019 0.823333 39.74 0.823333 37.3289C0.823333 35.5607 1.04148 33.8615 1.47778 32.2311C1.91407 30.5778 2.52259 29.0393 3.30333 27.6156C4.10704 26.1919 5.06 24.8944 6.16222 23.7233C7.28741 22.5522 8.52741 21.5533 9.88222 20.7267C11.237 19.877 12.6837 19.2226 14.2222 18.7633C15.7837 18.3041 17.4026 18.0744 19.0789 18.0744C20.4796 18.0744 21.823 18.2352 23.1089 18.5567C24.3948 18.8781 25.5774 19.3374 26.6567 19.9344C27.7359 20.5085 28.6889 21.2319 29.5156 22.1044C30.3422 22.9541 30.9852 23.907 31.4444 24.9633L26.3467 28.6489ZM50.5509 18.7289V43.8389C50.5509 44.7115 50.7461 45.5381 51.1364 46.3189C51.5498 47.0996 52.1124 47.777 52.8242 48.3511C53.5361 48.9252 54.3513 49.3844 55.2698 49.7289C56.2113 50.0504 57.2216 50.2111 58.3009 50.2111C58.9898 50.2111 59.7246 50.0619 60.5053 49.7633C61.309 49.4648 62.0898 49.063 62.8476 48.5578C63.6053 48.0296 64.3057 47.4211 64.9487 46.7322C65.6146 46.0204 66.1772 45.2741 66.6364 44.4933V18.7289H73.5942V54H66.6364V47.3867C66.0164 48.397 65.2357 49.35 64.2942 50.2456C63.3757 51.1411 62.3768 51.9219 61.2976 52.5878C60.2183 53.2537 59.1046 53.7819 57.9564 54.1722C56.8083 54.5626 55.7176 54.7578 54.6842 54.7578C53.1457 54.7578 51.699 54.4707 50.3442 53.8967C48.9894 53.3226 47.8068 52.5419 46.7964 51.5544C45.7861 50.567 44.9824 49.4074 44.3853 48.0756C43.8113 46.7437 43.5242 45.3315 43.5242 43.8389V18.7289H50.5509ZM90.962 18.0744H92.0298L92.9598 25.2733C93.5109 24.217 94.1998 23.2526 95.0265 22.38C95.8531 21.5074 96.7602 20.7496 97.7476 20.1067C98.7579 19.4637 99.8142 18.97 100.916 18.6256C102.042 18.2581 103.178 18.0744 104.326 18.0744C105.36 18.0744 106.37 18.2122 107.358 18.4878C108.368 18.7633 109.309 19.1996 110.182 19.7967L107.978 25.6867C107.518 25.1815 107.036 24.7796 106.531 24.4811C106.026 24.1596 105.509 23.9185 104.981 23.7578C104.453 23.5741 103.913 23.4593 103.362 23.4133C102.811 23.3674 102.26 23.3444 101.709 23.3444C100.836 23.3444 99.975 23.4707 99.1254 23.7233C98.2987 23.9759 97.5065 24.3548 96.7487 24.86C95.9909 25.3422 95.2905 25.9737 94.6476 26.7544C94.0046 27.5122 93.442 28.4078 92.9598 29.4411V54H85.9676V20.0033L90.962 18.0744ZM121.417 18.0744H122.485L123.415 25.2733C123.966 24.217 124.655 23.2526 125.482 22.38C126.308 21.5074 127.215 20.7496 128.203 20.1067C129.213 19.4637 130.269 18.97 131.372 18.6256C132.497 18.2581 133.633 18.0744 134.782 18.0744C135.815 18.0744 136.825 18.2122 137.813 18.4878C138.823 18.7633 139.765 19.1996 140.637 19.7967L138.433 25.6867C137.973 25.1815 137.491 24.7796 136.986 24.4811C136.481 24.1596 135.964 23.9185 135.436 23.7578C134.908 23.5741 134.368 23.4593 133.817 23.4133C133.266 23.3674 132.715 23.3444 132.164 23.3444C131.291 23.3444 130.43 23.4707 129.58 23.7233C128.754 23.9759 127.962 24.3548 127.204 24.86C126.446 25.3422 125.746 25.9737 125.103 26.7544C124.46 27.5122 123.897 28.4078 123.415 29.4411V54H116.423V20.0033L121.417 18.0744ZM147.429 20.0722L152.354 18.0744H154.387V54H147.429V20.0722ZM146.878 5.22667C146.878 4.67555 146.981 4.15889 147.188 3.67667C147.394 3.19444 147.681 2.76963 148.049 2.40222C148.416 2.03481 148.841 1.74778 149.323 1.54111C149.806 1.33444 150.322 1.23111 150.873 1.23111C151.424 1.23111 151.941 1.33444 152.423 1.54111C152.906 1.74778 153.33 2.03481 153.698 2.40222C154.065 2.76963 154.352 3.19444 154.559 3.67667C154.766 4.15889 154.869 4.67555 154.869 5.22667C154.869 5.77778 154.766 6.29444 154.559 6.77667C154.352 7.25889 154.065 7.6837 153.698 8.05111C153.33 8.41852 152.906 8.70555 152.423 8.91222C151.941 9.11889 151.424 9.22222 150.873 9.22222C150.322 9.22222 149.806 9.11889 149.323 8.91222C148.841 8.70555 148.416 8.41852 148.049 8.05111C147.681 7.6837 147.394 7.25889 147.188 6.77667C146.981 6.29444 146.878 5.77778 146.878 5.22667ZM190.429 28.6489C190.176 27.7304 189.832 26.8004 189.395 25.8589C188.959 24.9174 188.396 24.0678 187.708 23.31C187.042 22.5293 186.249 21.8978 185.331 21.4156C184.412 20.9333 183.333 20.6922 182.093 20.6922C180.509 20.6922 179.085 21.0137 177.822 21.6567C176.559 22.2996 175.491 23.1722 174.619 24.2744C173.746 25.3767 173.08 26.6626 172.621 28.1322C172.162 29.6019 171.932 31.1633 171.932 32.8167C171.932 35.067 172.219 37.2026 172.793 39.2233C173.39 41.2211 174.217 42.9778 175.273 44.4933C176.352 46.0089 177.638 47.2144 179.131 48.11C180.646 48.9826 182.334 49.4189 184.194 49.4189C185.825 49.4189 187.237 49.1663 188.431 48.6611C189.648 48.133 190.693 47.4326 191.565 46.56C192.461 45.6874 193.23 44.677 193.873 43.5289C194.516 42.3578 195.09 41.1293 195.595 39.8433L197.696 40.7044C197.099 42.9089 196.296 44.8837 195.285 46.6289C194.275 48.3741 193.081 49.8552 191.703 51.0722C190.348 52.2663 188.81 53.1848 187.088 53.8278C185.388 54.4478 183.54 54.7578 181.542 54.7578C179.223 54.7578 177.053 54.31 175.032 53.4144C173.011 52.4959 171.255 51.2444 169.762 49.66C168.269 48.0756 167.087 46.227 166.214 44.1144C165.342 42.0019 164.905 39.74 164.905 37.3289C164.905 35.5607 165.124 33.8615 165.56 32.2311C165.996 30.5778 166.605 29.0393 167.385 27.6156C168.189 26.1919 169.142 24.8944 170.244 23.7233C171.369 22.5522 172.609 21.5533 173.964 20.7267C175.319 19.877 176.766 19.2226 178.304 18.7633C179.866 18.3041 181.485 18.0744 183.161 18.0744C184.562 18.0744 185.905 18.2352 187.191 18.5567C188.477 18.8781 189.659 19.3374 190.739 19.9344C191.818 20.5085 192.771 21.2319 193.598 22.1044C194.424 22.9541 195.067 23.907 195.526 24.9633L190.429 28.6489ZM214.633 18.7289V43.8389C214.633 44.7115 214.828 45.5381 215.218 46.3189C215.632 47.0996 216.194 47.777 216.906 48.3511C217.618 48.9252 218.433 49.3844 219.352 49.7289C220.293 50.0504 221.304 50.2111 222.383 50.2111C223.072 50.2111 223.807 50.0619 224.587 49.7633C225.391 49.4648 226.172 49.063 226.93 48.5578C227.687 48.0296 228.388 47.4211 229.031 46.7322C229.697 46.0204 230.259 45.2741 230.718 44.4933V18.7289H237.676V54H230.718V47.3867C230.098 48.397 229.318 49.35 228.376 50.2456C227.458 51.1411 226.459 51.9219 225.38 52.5878C224.3 53.2537 223.187 53.7819 222.038 54.1722C220.89 54.5626 219.8 54.7578 218.766 54.7578C217.228 54.7578 215.781 54.4707 214.426 53.8967C213.071 53.3226 211.889 52.5419 210.878 51.5544C209.868 50.567 209.064 49.4074 208.467 48.0756C207.893 46.7437 207.606 45.3315 207.606 43.8389V18.7289H214.633ZM257.076 54H250.05V2.74666L255.044 0.748887H257.076V54ZM276.451 18.7289V43.8389C276.451 44.7115 276.646 45.5381 277.037 46.3189C277.45 47.0996 278.013 47.777 278.725 48.3511C279.436 48.9252 280.252 49.3844 281.17 49.7289C282.112 50.0504 283.122 50.2111 284.201 50.2111C284.89 50.2111 285.625 50.0619 286.406 49.7633C287.209 49.4648 287.99 49.063 288.748 48.5578C289.506 48.0296 290.206 47.4211 290.849 46.7322C291.515 46.0204 292.078 45.2741 292.537 44.4933V18.7289H299.495V54H292.537V47.3867C291.917 48.397 291.136 49.35 290.195 50.2456C289.276 51.1411 288.277 51.9219 287.198 52.5878C286.119 53.2537 285.005 53.7819 283.857 54.1722C282.709 54.5626 281.618 54.7578 280.585 54.7578C279.046 54.7578 277.599 54.4707 276.245 53.8967C274.89 53.3226 273.707 52.5419 272.697 51.5544C271.686 50.567 270.883 49.4074 270.286 48.0756C269.712 46.7437 269.425 45.3315 269.425 43.8389V18.7289H276.451ZM316.897 18.0744H318.895V25.3767C319.79 24.4122 320.801 23.4937 321.926 22.6211C323.051 21.7256 324.211 20.9448 325.405 20.2789C326.599 19.59 327.793 19.0504 328.987 18.66C330.181 18.2696 331.318 18.0744 332.397 18.0744C333.43 18.0744 334.475 18.2581 335.531 18.6256C336.611 18.993 337.598 19.5096 338.494 20.1756C339.412 20.8415 340.193 21.6337 340.836 22.5522C341.502 23.4478 341.938 24.4352 342.145 25.5144C342.719 24.4811 343.511 23.5167 344.521 22.6211C345.555 21.7026 346.691 20.9104 347.931 20.2444C349.171 19.5785 350.48 19.0504 351.858 18.66C353.259 18.2696 354.625 18.0744 355.957 18.0744C357.289 18.0744 358.529 18.373 359.677 18.97C360.848 19.5441 361.87 20.3363 362.742 21.3467C363.615 22.3341 364.304 23.5052 364.809 24.86C365.314 26.1919 365.567 27.6156 365.567 29.1311V54H358.575V30.0956C358.575 29.1081 358.402 28.1781 358.058 27.3056C357.736 26.41 357.289 25.6293 356.715 24.9633C356.141 24.2974 355.463 23.7693 354.682 23.3789C353.925 22.9885 353.121 22.7933 352.271 22.7933C351.307 22.7933 350.319 22.9311 349.309 23.2067C348.322 23.4593 347.38 23.8152 346.485 24.2744C345.589 24.7337 344.774 25.2733 344.039 25.8933C343.304 26.4904 342.719 27.1333 342.282 27.8222V54H335.29V30.0956C335.29 29.1081 335.118 28.1781 334.774 27.3056C334.429 26.41 333.97 25.6293 333.396 24.9633C332.822 24.2974 332.144 23.7693 331.364 23.3789C330.583 22.9885 329.768 22.7933 328.918 22.7933C328.022 22.7933 327.092 22.9311 326.128 23.2067C325.186 23.4822 324.256 23.8496 323.338 24.3089C322.442 24.7681 321.604 25.3078 320.824 25.9278C320.043 26.5248 319.4 27.1563 318.895 27.8222V54H311.868V20.0378L316.897 18.0744ZM394.006 18.7289L406.475 45.4233L418.427 18.7289H421.596L405.717 54.3789H403.306L386.669 18.7289H394.006ZM428.911 20.0722L433.837 18.0744H435.869V54H428.911V20.0722ZM428.36 5.22667C428.36 4.67555 428.463 4.15889 428.67 3.67667C428.877 3.19444 429.164 2.76963 429.531 2.40222C429.899 2.03481 430.323 1.74778 430.806 1.54111C431.288 1.33444 431.805 1.23111 432.356 1.23111C432.907 1.23111 433.423 1.33444 433.906 1.54111C434.388 1.74778 434.813 2.03481 435.18 2.40222C435.548 2.76963 435.835 3.19444 436.041 3.67667C436.248 4.15889 436.351 4.67555 436.351 5.22667C436.351 5.77778 436.248 6.29444 436.041 6.77667C435.835 7.25889 435.548 7.6837 435.18 8.05111C434.813 8.41852 434.388 8.70555 433.906 8.91222C433.423 9.11889 432.907 9.22222 432.356 9.22222C431.805 9.22222 431.288 9.11889 430.806 8.91222C430.323 8.70555 429.899 8.41852 429.531 8.05111C429.164 7.6837 428.877 7.25889 428.67 6.77667C428.463 6.29444 428.36 5.77778 428.36 5.22667ZM456.17 6.74222H458.168V18.7289H466.021V21.7256H458.168V46.56C458.168 47.0881 458.26 47.5819 458.443 48.0411C458.65 48.5004 458.914 48.9022 459.236 49.2467C459.58 49.5911 459.982 49.8667 460.441 50.0733C460.9 50.257 461.406 50.3489 461.957 50.3489C462.737 50.3489 463.449 50.1537 464.092 49.7633C464.735 49.373 465.298 48.8907 465.78 48.3167L467.537 49.4878C466.572 51.1181 465.321 52.4041 463.782 53.3456C462.244 54.287 460.338 54.7578 458.064 54.7578C456.893 54.7578 455.871 54.5511 454.999 54.1378C454.126 53.7474 453.403 53.1963 452.829 52.4844C452.278 51.7496 451.864 50.8885 451.589 49.9011C451.313 48.8907 451.176 47.777 451.176 46.56V21.7256H445.044V20.4167L451.176 18.7289V8.70555L456.17 6.74222ZM498.739 54C497.82 53.5407 497.04 52.8978 496.397 52.0711C495.777 51.2215 495.467 50.257 495.467 49.1778C494.64 49.7978 493.825 50.4407 493.021 51.1067C492.24 51.7726 491.379 52.3811 490.438 52.9322C489.519 53.4604 488.486 53.8967 487.338 54.2411C486.212 54.5856 484.904 54.7578 483.411 54.7578C482.033 54.7578 480.782 54.5281 479.657 54.0689C478.554 53.6326 477.613 53.0241 476.832 52.2433C476.074 51.4626 475.477 50.5326 475.041 49.4533C474.628 48.3741 474.421 47.2144 474.421 45.9744C474.421 44.4589 474.72 43.0926 475.317 41.8756C475.914 40.6585 476.729 39.5793 477.762 38.6378C478.818 37.6733 480.035 36.8237 481.413 36.0889C482.791 35.3311 484.261 34.6652 485.822 34.0911C487.384 33.4941 488.991 32.9659 490.644 32.5067C492.298 32.0474 493.905 31.6226 495.467 31.2322V29.0278C495.467 27.4204 495.352 26.0656 495.122 24.9633C494.892 23.8611 494.537 22.977 494.054 22.3111C493.572 21.6222 492.952 21.14 492.194 20.8644C491.46 20.5659 490.575 20.4167 489.542 20.4167C488.555 20.4167 487.648 20.6119 486.821 21.0022C485.994 21.3926 485.26 21.9207 484.617 22.5867C483.997 23.2296 483.48 23.9989 483.067 24.8944C482.676 25.767 482.412 26.697 482.274 27.6844H475.868C476.051 26.1689 476.568 24.8141 477.418 23.62C478.29 22.4259 479.381 21.427 480.69 20.6233C481.999 19.7967 483.48 19.1652 485.133 18.7289C486.81 18.2926 488.543 18.0744 490.334 18.0744C492.631 18.0744 494.56 18.3041 496.121 18.7633C497.682 19.1996 498.934 19.8196 499.875 20.6233C500.817 21.427 501.483 22.4144 501.873 23.5856C502.287 24.7337 502.493 26.0081 502.493 27.4089V49.1778C502.493 50.257 502.803 51.2215 503.423 52.0711C504.066 52.8978 504.847 53.5407 505.765 54H498.739ZM495.467 33.4711C494.456 33.7926 493.411 34.16 492.332 34.5733C491.253 34.9867 490.197 35.4574 489.163 35.9856C488.13 36.4907 487.142 37.0419 486.201 37.6389C485.26 38.2359 484.433 38.8789 483.721 39.5678C483.009 40.2567 482.447 40.98 482.033 41.7378C481.62 42.4956 481.413 43.2878 481.413 44.1144C481.413 44.987 481.574 45.8137 481.895 46.5944C482.217 47.3522 482.642 48.0296 483.17 48.6267C483.698 49.2007 484.307 49.66 484.995 50.0044C485.684 50.3259 486.396 50.4867 487.131 50.4867C487.912 50.4867 488.658 50.3833 489.37 50.1767C490.082 49.97 490.771 49.6944 491.437 49.35C492.102 48.9826 492.768 48.5693 493.434 48.11C494.1 47.6507 494.778 47.157 495.467 46.6289V33.4711ZM528.767 54.7578C526.379 54.7578 524.128 54.31 522.016 53.4144C519.926 52.5189 518.1 51.3019 516.539 49.7633C514.978 48.2248 513.738 46.4222 512.819 44.3556C511.923 42.2659 511.476 40.05 511.476 37.7078C511.476 34.8833 511.889 32.277 512.716 29.8889C513.542 27.4778 514.713 25.3996 516.229 23.6544C517.745 21.9093 519.559 20.543 521.671 19.5556C523.807 18.5681 526.183 18.0744 528.801 18.0744C531.098 18.0744 533.21 18.4878 535.139 19.3144C537.068 20.1181 538.721 21.2089 540.099 22.5867C541.5 23.9415 542.579 25.5144 543.337 27.3056C544.118 29.0967 544.508 30.9681 544.508 32.92H518.227C518.227 35.2852 518.525 37.4781 519.122 39.4989C519.742 41.5196 520.603 43.2648 521.706 44.7344C522.808 46.2041 524.117 47.3522 525.632 48.1789C527.148 49.0056 528.813 49.4189 530.627 49.4189C532.142 49.4189 533.6 49.1778 535.001 48.6956C536.402 48.1904 537.665 47.5359 538.79 46.7322C539.938 45.9285 540.914 45.01 541.718 43.9767C542.522 42.9433 543.084 41.8756 543.406 40.7733L545.438 41.6689C544.933 43.483 544.118 45.1822 542.992 46.7667C541.867 48.3511 540.547 49.7404 539.031 50.9344C537.539 52.1056 535.908 53.0356 534.14 53.7244C532.372 54.4133 530.581 54.7578 528.767 54.7578ZM535.725 30.0956C535.725 28.7637 535.483 27.5237 535.001 26.3756C534.542 25.2274 533.899 24.24 533.072 23.4133C532.246 22.5637 531.281 21.8978 530.179 21.4156C529.077 20.9333 527.894 20.6922 526.631 20.6922C525.575 20.6922 524.565 20.9333 523.6 21.4156C522.636 21.8748 521.775 22.5293 521.017 23.3789C520.259 24.2056 519.628 25.193 519.122 26.3411C518.64 27.4893 518.353 28.7293 518.261 30.0611L535.725 30.0956Z" fill="black"/>
</svg>
