<svg width="546" height="22" viewBox="0 0 546 22" fill="none" xmlns="http://www.w3.org/2000/svg">
<path d="M26.3467 -4.35111C26.0941 -5.26963 25.7496 -6.19963 25.3133 -7.14111C24.877 -8.08259 24.3144 -8.93222 23.6256 -9.69C22.9596 -10.4707 22.1674 -11.1022 21.2489 -11.5844C20.3304 -12.0667 19.2511 -12.3078 18.0111 -12.3078C16.4267 -12.3078 15.003 -11.9863 13.74 -11.3433C12.477 -10.7004 11.4093 -9.82778 10.5367 -8.72556C9.66407 -7.62333 8.99815 -6.33741 8.53889 -4.86778C8.07963 -3.39815 7.85 -1.83667 7.85 -0.183333C7.85 2.06704 8.13704 4.20259 8.71111 6.22333C9.30815 8.22111 10.1348 9.97778 11.1911 11.4933C12.2704 13.0089 13.5563 14.2144 15.0489 15.11C16.5644 15.9826 18.2522 16.4189 20.1122 16.4189C21.7426 16.4189 23.1548 16.1663 24.3489 15.6611C25.5659 15.133 26.6107 14.4326 27.4833 13.56C28.3789 12.6874 29.1481 11.677 29.7911 10.5289C30.4341 9.35778 31.0081 8.12926 31.5133 6.84333L33.6144 7.70444C33.0174 9.90889 32.2137 11.8837 31.2033 13.6289C30.193 15.3741 28.9989 16.8552 27.6211 18.0722C26.2663 19.2663 24.7278 20.1848 23.0056 20.8278C21.3063 21.4478 19.4578 21.7578 17.46 21.7578C15.1407 21.7578 12.9707 21.31 10.95 20.4144C8.92926 19.4959 7.17259 18.2444 5.68 16.66C4.18741 15.0756 3.00482 13.227 2.13222 11.1144C1.25963 9.00185 0.823333 6.74 0.823333 4.32889C0.823333 2.56074 1.04148 0.861481 1.47778 -0.768889C1.91407 -2.42222 2.52259 -3.96074 3.30333 -5.38444C4.10704 -6.80815 5.06 -8.10556 6.16222 -9.27667C7.28741 -10.4478 8.52741 -11.4467 9.88222 -12.2733C11.237 -13.123 12.6837 -13.7774 14.2222 -14.2367C15.7837 -14.6959 17.4026 -14.9256 19.0789 -14.9256C20.4796 -14.9256 21.823 -14.7648 23.1089 -14.4433C24.3948 -14.1219 25.5774 -13.6626 26.6567 -13.0656C27.7359 -12.4915 28.6889 -11.7681 29.5156 -10.8956C30.3422 -10.0459 30.9852 -9.09296 31.4444 -8.03667L26.3467 -4.35111ZM50.5509 -14.2711V10.8389C50.5509 11.7115 50.7461 12.5381 51.1364 13.3189C51.5498 14.0996 52.1124 14.777 52.8242 15.3511C53.5361 15.9252 54.3513 16.3844 55.2698 16.7289C56.2113 17.0504 57.2216 17.2111 58.3009 17.2111C58.9898 17.2111 59.7246 17.0619 60.5053 16.7633C61.309 16.4648 62.0898 16.063 62.8476 15.5578C63.6053 15.0296 64.3057 14.4211 64.9487 13.7322C65.6146 13.0204 66.1772 12.2741 66.6364 11.4933V-14.2711H73.5942V21H66.6364V14.3867C66.0164 15.397 65.2357 16.35 64.2942 17.2456C63.3757 18.1411 62.3768 18.9219 61.2976 19.5878C60.2183 20.2537 59.1046 20.7819 57.9564 21.1722C56.8083 21.5626 55.7176 21.7578 54.6842 21.7578C53.1457 21.7578 51.699 21.4707 50.3442 20.8967C48.9894 20.3226 47.8068 19.5419 46.7964 18.5544C45.7861 17.567 44.9824 16.4074 44.3853 15.0756C43.8113 13.7437 43.5242 12.3315 43.5242 10.8389V-14.2711H50.5509ZM90.962 -14.9256H92.0298L92.9598 -7.72667C93.5109 -8.78296 94.1998 -9.74741 95.0265 -10.62C95.8531 -11.4926 96.7602 -12.2504 97.7476 -12.8933C98.7579 -13.5363 99.8142 -14.03 100.916 -14.3744C102.042 -14.7419 103.178 -14.9256 104.326 -14.9256C105.36 -14.9256 106.37 -14.7878 107.358 -14.5122C108.368 -14.2367 109.309 -13.8004 110.182 -13.2033L107.978 -7.31333C107.518 -7.81852 107.036 -8.22037 106.531 -8.51889C106.026 -8.84037 105.509 -9.08148 104.981 -9.24222C104.453 -9.42593 103.913 -9.54074 103.362 -9.58667C102.811 -9.63259 102.26 -9.65556 101.709 -9.65556C100.836 -9.65556 99.975 -9.52926 99.1254 -9.27667C98.2987 -9.02407 97.5065 -8.64519 96.7487 -8.14C95.9909 -7.65778 95.2905 -7.0263 94.6476 -6.24556C94.0046 -5.48778 93.442 -4.59222 92.9598 -3.55889V21H85.9676V-12.9967L90.962 -14.9256ZM121.417 -14.9256H122.485L123.415 -7.72667C123.966 -8.78296 124.655 -9.74741 125.482 -10.62C126.308 -11.4926 127.215 -12.2504 128.203 -12.8933C129.213 -13.5363 130.269 -14.03 131.372 -14.3744C132.497 -14.7419 133.633 -14.9256 134.782 -14.9256C135.815 -14.9256 136.825 -14.7878 137.813 -14.5122C138.823 -14.2367 139.765 -13.8004 140.637 -13.2033L138.433 -7.31333C137.973 -7.81852 137.491 -8.22037 136.986 -8.51889C136.481 -8.84037 135.964 -9.08148 135.436 -9.24222C134.908 -9.42593 134.368 -9.54074 133.817 -9.58667C133.266 -9.63259 132.715 -9.65556 132.164 -9.65556C131.291 -9.65556 130.43 -9.52926 129.58 -9.27667C128.754 -9.02407 127.962 -8.64519 127.204 -8.14C126.446 -7.65778 125.746 -7.0263 125.103 -6.24556C124.46 -5.48778 123.897 -4.59222 123.415 -3.55889V21H116.423V-12.9967L121.417 -14.9256ZM147.429 -12.9278L152.354 -14.9256H154.387V21H147.429V-12.9278ZM146.878 -27.7733C146.878 -28.3244 146.981 -28.8411 147.188 -29.3233C147.394 -29.8056 147.681 -30.2304 148.049 -30.5978C148.416 -30.9652 148.841 -31.2522 149.323 -31.4589C149.806 -31.6656 150.322 -31.7689 150.873 -31.7689C151.424 -31.7689 151.941 -31.6656 152.423 -31.4589C152.906 -31.2522 153.33 -30.9652 153.698 -30.5978C154.065 -30.2304 154.352 -29.8056 154.559 -29.3233C154.766 -28.8411 154.869 -28.3244 154.869 -27.7733C154.869 -27.2222 154.766 -26.7056 154.559 -26.2233C154.352 -25.7411 154.065 -25.3163 153.698 -24.9489C153.33 -24.5815 152.906 -24.2944 152.423 -24.0878C151.941 -23.8811 151.424 -23.7778 150.873 -23.7778C150.322 -23.7778 149.806 -23.8811 149.323 -24.0878C148.841 -24.2944 148.416 -24.5815 148.049 -24.9489C147.681 -25.3163 147.394 -25.7411 147.188 -26.2233C146.981 -26.7056 146.878 -27.2222 146.878 -27.7733ZM190.429 -4.35111C190.176 -5.26963 189.832 -6.19963 189.395 -7.14111C188.959 -8.08259 188.396 -8.93222 187.708 -9.69C187.042 -10.4707 186.249 -11.1022 185.331 -11.5844C184.412 -12.0667 183.333 -12.3078 182.093 -12.3078C180.509 -12.3078 179.085 -11.9863 177.822 -11.3433C176.559 -10.7004 175.491 -9.82778 174.619 -8.72556C173.746 -7.62333 173.08 -6.33741 172.621 -4.86778C172.162 -3.39815 171.932 -1.83667 171.932 -0.183333C171.932 2.06704 172.219 4.20259 172.793 6.22333C173.39 8.22111 174.217 9.97778 175.273 11.4933C176.352 13.0089 177.638 14.2144 179.131 15.11C180.646 15.9826 182.334 16.4189 184.194 16.4189C185.825 16.4189 187.237 16.1663 188.431 15.6611C189.648 15.133 190.693 14.4326 191.565 13.56C192.461 12.6874 193.23 11.677 193.873 10.5289C194.516 9.35778 195.09 8.12926 195.595 6.84333L197.696 7.70444C197.099 9.90889 196.296 11.8837 195.285 13.6289C194.275 15.3741 193.081 16.8552 191.703 18.0722C190.348 19.2663 188.81 20.1848 187.088 20.8278C185.388 21.4478 183.54 21.7578 181.542 21.7578C179.223 21.7578 177.053 21.31 175.032 20.4144C173.011 19.4959 171.255 18.2444 169.762 16.66C168.269 15.0756 167.087 13.227 166.214 11.1144C165.342 9.00185 164.905 6.74 164.905 4.32889C164.905 2.56074 165.124 0.861481 165.56 -0.768889C165.996 -2.42222 166.605 -3.96074 167.385 -5.38444C168.189 -6.80815 169.142 -8.10556 170.244 -9.27667C171.369 -10.4478 172.609 -11.4467 173.964 -12.2733C175.319 -13.123 176.766 -13.7774 178.304 -14.2367C179.866 -14.6959 181.485 -14.9256 183.161 -14.9256C184.562 -14.9256 185.905 -14.7648 187.191 -14.4433C188.477 -14.1219 189.659 -13.6626 190.739 -13.0656C191.818 -12.4915 192.771 -11.7681 193.598 -10.8956C194.424 -10.0459 195.067 -9.09296 195.526 -8.03667L190.429 -4.35111ZM214.633 -14.2711V10.8389C214.633 11.7115 214.828 12.5381 215.218 13.3189C215.632 14.0996 216.194 14.777 216.906 15.3511C217.618 15.9252 218.433 16.3844 219.352 16.7289C220.293 17.0504 221.304 17.2111 222.383 17.2111C223.072 17.2111 223.807 17.0619 224.587 16.7633C225.391 16.4648 226.172 16.063 226.93 15.5578C227.687 15.0296 228.388 14.4211 229.031 13.7322C229.697 13.0204 230.259 12.2741 230.718 11.4933V-14.2711H237.676V21H230.718V14.3867C230.098 15.397 229.318 16.35 228.376 17.2456C227.458 18.1411 226.459 18.9219 225.38 19.5878C224.3 20.2537 223.187 20.7819 222.038 21.1722C220.89 21.5626 219.8 21.7578 218.766 21.7578C217.228 21.7578 215.781 21.4707 214.426 20.8967C213.071 20.3226 211.889 19.5419 210.878 18.5544C209.868 17.567 209.064 16.4074 208.467 15.0756C207.893 13.7437 207.606 12.3315 207.606 10.8389V-14.2711H214.633ZM257.076 21H250.05V-30.2533L255.044 -32.2511H257.076V21ZM276.451 -14.2711V10.8389C276.451 11.7115 276.646 12.5381 277.037 13.3189C277.45 14.0996 278.013 14.777 278.725 15.3511C279.436 15.9252 280.252 16.3844 281.17 16.7289C282.112 17.0504 283.122 17.2111 284.201 17.2111C284.89 17.2111 285.625 17.0619 286.406 16.7633C287.209 16.4648 287.99 16.063 288.748 15.5578C289.506 15.0296 290.206 14.4211 290.849 13.7322C291.515 13.0204 292.078 12.2741 292.537 11.4933V-14.2711H299.495V21H292.537V14.3867C291.917 15.397 291.136 16.35 290.195 17.2456C289.276 18.1411 288.277 18.9219 287.198 19.5878C286.119 20.2537 285.005 20.7819 283.857 21.1722C282.709 21.5626 281.618 21.7578 280.585 21.7578C279.046 21.7578 277.599 21.4707 276.245 20.8967C274.89 20.3226 273.707 19.5419 272.697 18.5544C271.686 17.567 270.883 16.4074 270.286 15.0756C269.712 13.7437 269.425 12.3315 269.425 10.8389V-14.2711H276.451ZM316.897 -14.9256H318.895V-7.62333C319.79 -8.58778 320.801 -9.5063 321.926 -10.3789C323.051 -11.2744 324.211 -12.0552 325.405 -12.7211C326.599 -13.41 327.793 -13.9496 328.987 -14.34C330.181 -14.7304 331.318 -14.9256 332.397 -14.9256C333.43 -14.9256 334.475 -14.7419 335.531 -14.3744C336.611 -14.007 337.598 -13.4904 338.494 -12.8244C339.412 -12.1585 340.193 -11.3663 340.836 -10.4478C341.502 -9.55222 341.938 -8.56482 342.145 -7.48556C342.719 -8.51889 343.511 -9.48334 344.521 -10.3789C345.555 -11.2974 346.691 -12.0896 347.931 -12.7556C349.171 -13.4215 350.48 -13.9496 351.858 -14.34C353.259 -14.7304 354.625 -14.9256 355.957 -14.9256C357.289 -14.9256 358.529 -14.627 359.677 -14.03C360.848 -13.4559 361.87 -12.6637 362.742 -11.6533C363.615 -10.6659 364.304 -9.49482 364.809 -8.14C365.314 -6.80815 365.567 -5.38445 365.567 -3.86889V21H358.575V-2.90445C358.575 -3.89185 358.402 -4.82185 358.058 -5.69444C357.736 -6.59 357.289 -7.37074 356.715 -8.03667C356.141 -8.70259 355.463 -9.23074 354.682 -9.62111C353.925 -10.0115 353.121 -10.2067 352.271 -10.2067C351.307 -10.2067 350.319 -10.0689 349.309 -9.79333C348.322 -9.54074 347.38 -9.18481 346.485 -8.72556C345.589 -8.2663 344.774 -7.72667 344.039 -7.10667C343.304 -6.50963 342.719 -5.86667 342.282 -5.17778V21H335.29V-2.90445C335.29 -3.89185 335.118 -4.82185 334.774 -5.69444C334.429 -6.59 333.97 -7.37074 333.396 -8.03667C332.822 -8.70259 332.144 -9.23074 331.364 -9.62111C330.583 -10.0115 329.768 -10.2067 328.918 -10.2067C328.022 -10.2067 327.092 -10.0689 326.128 -9.79333C325.186 -9.51778 324.256 -9.15037 323.338 -8.69111C322.442 -8.23185 321.604 -7.69222 320.824 -7.07222C320.043 -6.47519 319.4 -5.8437 318.895 -5.17778V21H311.868V-12.9622L316.897 -14.9256ZM394.006 -14.2711L406.475 12.4233L418.427 -14.2711H421.596L405.717 21.3789H403.306L386.669 -14.2711H394.006ZM428.911 -12.9278L433.837 -14.9256H435.869V21H428.911V-12.9278ZM428.36 -27.7733C428.36 -28.3244 428.463 -28.8411 428.67 -29.3233C428.877 -29.8056 429.164 -30.2304 429.531 -30.5978C429.899 -30.9652 430.323 -31.2522 430.806 -31.4589C431.288 -31.6656 431.805 -31.7689 432.356 -31.7689C432.907 -31.7689 433.423 -31.6656 433.906 -31.4589C434.388 -31.2522 434.813 -30.9652 435.18 -30.5978C435.548 -30.2304 435.835 -29.8056 436.041 -29.3233C436.248 -28.8411 436.351 -28.3244 436.351 -27.7733C436.351 -27.2222 436.248 -26.7056 436.041 -26.2233C435.835 -25.7411 435.548 -25.3163 435.18 -24.9489C434.813 -24.5815 434.388 -24.2944 433.906 -24.0878C433.423 -23.8811 432.907 -23.7778 432.356 -23.7778C431.805 -23.7778 431.288 -23.8811 430.806 -24.0878C430.323 -24.2944 429.899 -24.5815 429.531 -24.9489C429.164 -25.3163 428.877 -25.7411 428.67 -26.2233C428.463 -26.7056 428.36 -27.2222 428.36 -27.7733ZM456.17 -26.2578H458.168V-14.2711H466.021V-11.2744H458.168V13.56C458.168 14.0881 458.26 14.5819 458.443 15.0411C458.65 15.5004 458.914 15.9022 459.236 16.2467C459.58 16.5911 459.982 16.8667 460.441 17.0733C460.9 17.257 461.406 17.3489 461.957 17.3489C462.737 17.3489 463.449 17.1537 464.092 16.7633C464.735 16.373 465.298 15.8907 465.78 15.3167L467.537 16.4878C466.572 18.1181 465.321 19.4041 463.782 20.3456C462.244 21.287 460.338 21.7578 458.064 21.7578C456.893 21.7578 455.871 21.5511 454.999 21.1378C454.126 20.7474 453.403 20.1963 452.829 19.4844C452.278 18.7496 451.864 17.8885 451.589 16.9011C451.313 15.8907 451.176 14.777 451.176 13.56V-11.2744H445.044V-12.5833L451.176 -14.2711V-24.2944L456.17 -26.2578ZM498.739 21C497.82 20.5407 497.04 19.8978 496.397 19.0711C495.777 18.2215 495.467 17.257 495.467 16.1778C494.64 16.7978 493.825 17.4407 493.021 18.1067C492.24 18.7726 491.379 19.3811 490.438 19.9322C489.519 20.4604 488.486 20.8967 487.338 21.2411C486.212 21.5856 484.904 21.7578 483.411 21.7578C482.033 21.7578 480.782 21.5281 479.657 21.0689C478.554 20.6326 477.613 20.0241 476.832 19.2433C476.074 18.4626 475.477 17.5326 475.041 16.4533C474.628 15.3741 474.421 14.2144 474.421 12.9744C474.421 11.4589 474.72 10.0926 475.317 8.87555C475.914 7.65852 476.729 6.57926 477.762 5.63778C478.818 4.67333 480.035 3.8237 481.413 3.08889C482.791 2.33111 484.261 1.66519 485.822 1.09111C487.384 0.494074 488.991 -0.0340739 490.644 -0.493333C492.298 -0.952592 493.905 -1.37741 495.467 -1.76778V-3.97222C495.467 -5.57963 495.352 -6.93444 495.122 -8.03667C494.892 -9.13889 494.537 -10.023 494.054 -10.6889C493.572 -11.3778 492.952 -11.86 492.194 -12.1356C491.46 -12.4341 490.575 -12.5833 489.542 -12.5833C488.555 -12.5833 487.648 -12.3881 486.821 -11.9978C485.994 -11.6074 485.26 -11.0793 484.617 -10.4133C483.997 -9.77037 483.48 -9.00111 483.067 -8.10556C482.676 -7.23296 482.412 -6.30296 482.274 -5.31556H475.868C476.051 -6.83111 476.568 -8.18593 477.418 -9.38C478.29 -10.5741 479.381 -11.573 480.69 -12.3767C481.999 -13.2033 483.48 -13.8348 485.133 -14.2711C486.81 -14.7074 488.543 -14.9256 490.334 -14.9256C492.631 -14.9256 494.56 -14.6959 496.121 -14.2367C497.682 -13.8004 498.934 -13.1804 499.875 -12.3767C500.817 -11.573 501.483 -10.5856 501.873 -9.41444C502.287 -8.2663 502.493 -6.99185 502.493 -5.59111V16.1778C502.493 17.257 502.803 18.2215 503.423 19.0711C504.066 19.8978 504.847 20.5407 505.765 21H498.739ZM495.467 0.47111C494.456 0.792591 493.411 1.16 492.332 1.57333C491.253 1.98667 490.197 2.45741 489.163 2.98555C488.13 3.49074 487.142 4.04185 486.201 4.63889C485.26 5.23593 484.433 5.87889 483.721 6.56778C483.009 7.25667 482.447 7.98 482.033 8.73778C481.62 9.49556 481.413 10.2878 481.413 11.1144C481.413 11.987 481.574 12.8137 481.895 13.5944C482.217 14.3522 482.642 15.0296 483.17 15.6267C483.698 16.2007 484.307 16.66 484.995 17.0044C485.684 17.3259 486.396 17.4867 487.131 17.4867C487.912 17.4867 488.658 17.3833 489.37 17.1767C490.082 16.97 490.771 16.6944 491.437 16.35C492.102 15.9826 492.768 15.5693 493.434 15.11C494.1 14.6507 494.778 14.157 495.467 13.6289V0.47111ZM528.767 21.7578C526.379 21.7578 524.128 21.31 522.016 20.4144C519.926 19.5189 518.1 18.3019 516.539 16.7633C514.978 15.2248 513.738 13.4222 512.819 11.3556C511.923 9.26593 511.476 7.05 511.476 4.70778C511.476 1.88333 511.889 -0.722964 512.716 -3.11111C513.542 -5.52222 514.713 -7.60037 516.229 -9.34556C517.745 -11.0907 519.559 -12.457 521.671 -13.4444C523.807 -14.4319 526.183 -14.9256 528.801 -14.9256C531.098 -14.9256 533.21 -14.5122 535.139 -13.6856C537.068 -12.8819 538.721 -11.7911 540.099 -10.4133C541.5 -9.05852 542.579 -7.48556 543.337 -5.69444C544.118 -3.90333 544.508 -2.03185 544.508 -0.0800002H518.227C518.227 2.28518 518.525 4.47815 519.122 6.49889C519.742 8.51963 520.603 10.2648 521.706 11.7344C522.808 13.2041 524.117 14.3522 525.632 15.1789C527.148 16.0056 528.813 16.4189 530.627 16.4189C532.142 16.4189 533.6 16.1778 535.001 15.6956C536.402 15.1904 537.665 14.5359 538.79 13.7322C539.938 12.9285 540.914 12.01 541.718 10.9767C542.522 9.94333 543.084 8.87556 543.406 7.77333L545.438 8.66889C544.933 10.483 544.118 12.1822 542.992 13.7667C541.867 15.3511 540.547 16.7404 539.031 17.9344C537.539 19.1056 535.908 20.0356 534.14 20.7244C532.372 21.4133 530.581 21.7578 528.767 21.7578ZM535.725 -2.90445C535.725 -4.2363 535.483 -5.4763 535.001 -6.62445C534.542 -7.77259 533.899 -8.76 533.072 -9.58667C532.246 -10.4363 531.281 -11.1022 530.179 -11.5844C529.077 -12.0667 527.894 -12.3078 526.631 -12.3078C525.575 -12.3078 524.565 -12.0667 523.6 -11.5844C522.636 -11.1252 521.775 -10.4707 521.017 -9.62111C520.259 -8.79445 519.628 -7.80704 519.122 -6.65889C518.64 -5.51074 518.353 -4.27074 518.261 -2.93889L535.725 -2.90445Z" fill="black"/>
</svg>
